<?xml version="1.0" encoding="utf-8" standalone="no"?>
<!DOCTYPE svg PUBLIC "-//W3C//DTD SVG 1.1//EN"
  "http://www.w3.org/Graphics/SVG/1.1/DTD/svg11.dtd">
<svg xmlns:xlink="http://www.w3.org/1999/xlink" width="460.8pt" height="345.6pt" viewBox="0 0 460.8 345.6" xmlns="http://www.w3.org/2000/svg" version="1.1">
 <metadata>
  <rdf:RDF xmlns:dc="http://purl.org/dc/elements/1.1/" xmlns:cc="http://creativecommons.org/ns#" xmlns:rdf="http://www.w3.org/1999/02/22-rdf-syntax-ns#">
   <cc:Work>
    <dc:type rdf:resource="http://purl.org/dc/dcmitype/StillImage"/>
    <dc:date>2024-11-19T11:40:17.673779</dc:date>
    <dc:format>image/svg+xml</dc:format>
    <dc:creator>
     <cc:Agent>
      <dc:title>Matplotlib v3.7.1, https://matplotlib.org/</dc:title>
     </cc:Agent>
    </dc:creator>
   </cc:Work>
  </rdf:RDF>
 </metadata>
 <defs>
  <style type="text/css">*{stroke-linejoin: round; stroke-linecap: butt}</style>
 </defs>
 <g id="figure_1">
  <g id="patch_1">
   <path d="M 0 345.6 
L 460.8 345.6 
L 460.8 0 
L 0 0 
z
" style="fill: #ffffff"/>
  </g>
  <g id="axes_1">
   <g id="patch_2">
    <path d="M 57.6 307.584 
L 414.72 307.584 
L 414.72 41.472 
L 57.6 41.472 
z
" style="fill: #eeeeee"/>
   </g>
   <g id="matplotlib.axis_1">
    <g id="xtick_1">
     <g id="line2d_1">
      <path d="M 73.832727 307.584 
L 73.832727 41.472 
" clip-path="url(#pf088ad1134)" style="fill: none; stroke-dasharray: 1.85,0.8; stroke-dashoffset: 0; stroke: #b2b2b2; stroke-width: 0.5"/>
     </g>
     <g id="text_1">
      <!-- 2 -->
      <g style="fill: #262626" transform="translate(71.275227 318.761656) scale(0.11 -0.11)">
       <defs>
        <path id="LibertinusSerif-Regular-32" d="M 390 2995 
C 390 2861 512 2746 646 2746 
C 755 2746 947 2861 947 3002 
C 947 3053 934 3091 922 3136 
C 909 3181 870 3238 870 3290 
C 870 3450 1037 3680 1504 3680 
C 1734 3680 2061 3520 2061 2906 
C 2061 2496 1914 2163 1536 1779 
L 1062 1312 
C 435 672 333 365 333 -13 
C 333 -13 659 0 864 0 
L 1984 0 
C 2189 0 2483 -13 2483 -13 
C 2566 326 2630 806 2637 998 
C 2598 1030 2515 1043 2451 1030 
C 2342 576 2234 416 2003 416 
L 864 416 
C 864 723 1306 1158 1338 1190 
L 1984 1811 
C 2349 2163 2624 2445 2624 2931 
C 2624 3622 2061 3904 1542 3904 
C 832 3904 390 3379 390 2995 
z
" transform="scale(0.015625)"/>
       </defs>
       <use xlink:href="#LibertinusSerif-Regular-32"/>
      </g>
     </g>
    </g>
    <g id="xtick_2">
     <g id="line2d_2">
      <path d="M 84.305455 307.584 
L 84.305455 41.472 
" clip-path="url(#pf088ad1134)" style="fill: none; stroke-dasharray: 1.85,0.8; stroke-dashoffset: 0; stroke: #b2b2b2; stroke-width: 0.5"/>
     </g>
     <g id="text_2">
      <!-- 4 -->
      <g style="fill: #262626" transform="translate(81.747955 318.761656) scale(0.11 -0.11)">
       <defs>
        <path id="LibertinusSerif-Regular-34" d="M 2752 1402 
L 2221 1402 
L 2221 3270 
C 2221 3590 2221 3840 2234 3891 
L 2221 3904 
L 2016 3904 
C 1971 3904 1939 3866 1914 3834 
C 1510 3341 768 2285 179 1370 
C 198 1274 237 1101 429 1101 
L 1734 1101 
L 1734 512 
C 1734 218 1491 218 1216 198 
C 1178 160 1178 26 1216 -13 
C 1421 -6 1677 0 1971 0 
C 2221 0 2464 -6 2669 -13 
C 2707 26 2707 160 2669 198 
C 2355 224 2221 211 2221 512 
L 2221 1101 
L 2662 1101 
C 2752 1101 2848 1222 2848 1299 
C 2848 1363 2822 1402 2752 1402 
z
M 1734 3245 
L 1734 1402 
L 512 1402 
C 838 1926 1293 2643 1734 3245 
z
" transform="scale(0.015625)"/>
       </defs>
       <use xlink:href="#LibertinusSerif-Regular-34"/>
      </g>
     </g>
    </g>
    <g id="xtick_3">
     <g id="line2d_3">
      <path d="M 105.250909 307.584 
L 105.250909 41.472 
" clip-path="url(#pf088ad1134)" style="fill: none; stroke-dasharray: 1.85,0.8; stroke-dashoffset: 0; stroke: #b2b2b2; stroke-width: 0.5"/>
     </g>
     <g id="text_3">
      <!-- 8 -->
      <g style="fill: #262626" transform="translate(102.693409 318.761656) scale(0.11 -0.11)">
       <defs>
        <path id="LibertinusSerif-Regular-38" d="M 2515 3104 
C 2515 3565 2157 3904 1530 3904 
C 877 3904 454 3514 454 3021 
C 454 2662 627 2400 1018 2157 
L 1184 2054 
C 998 1958 826 1843 666 1702 
C 403 1472 294 1184 294 934 
C 294 282 755 -64 1434 -64 
C 2272 -64 2682 550 2682 1037 
C 2682 1408 2522 1734 2182 1939 
L 1728 2214 
C 2029 2362 2515 2694 2515 3104 
z
M 1446 160 
C 1158 160 723 358 723 934 
C 723 1126 806 1574 1357 1939 
L 1658 1760 
C 2054 1517 2214 1216 2214 909 
C 2214 269 1734 160 1446 160 
z
M 1498 3680 
C 1914 3680 2067 3405 2067 3110 
C 2067 2765 1728 2477 1555 2349 
L 1357 2470 
C 954 2733 909 2944 909 3142 
C 909 3437 1114 3680 1498 3680 
z
" transform="scale(0.015625)"/>
       </defs>
       <use xlink:href="#LibertinusSerif-Regular-38"/>
      </g>
     </g>
    </g>
    <g id="xtick_4">
     <g id="line2d_4">
      <path d="M 147.141818 307.584 
L 147.141818 41.472 
" clip-path="url(#pf088ad1134)" style="fill: none; stroke-dasharray: 1.85,0.8; stroke-dashoffset: 0; stroke: #b2b2b2; stroke-width: 0.5"/>
     </g>
     <g id="text_4">
      <!-- 16 -->
      <g style="fill: #262626" transform="translate(142.026818 318.761656) scale(0.11 -0.11)">
       <defs>
        <path id="LibertinusSerif-Regular-31" d="M 1843 781 
L 1843 3002 
C 1843 3386 1850 3776 1862 3859 
C 1862 3891 1850 3891 1824 3891 
C 1472 3674 1133 3514 570 3251 
C 582 3181 608 3117 666 3078 
C 960 3200 1101 3238 1222 3238 
C 1331 3238 1350 3085 1350 2867 
L 1350 781 
C 1350 250 1178 218 730 198 
C 691 160 691 26 730 -13 
C 1043 -6 1274 0 1619 0 
C 1926 0 2080 -6 2400 -13 
C 2438 26 2438 160 2400 198 
C 1952 218 1843 250 1843 781 
z
" transform="scale(0.015625)"/>
        <path id="LibertinusSerif-Regular-36" d="M 922 2195 
C 1094 2778 1504 3424 2355 3744 
C 2355 3821 2330 3878 2278 3910 
C 1632 3718 1235 3450 877 3034 
C 480 2573 282 1990 282 1485 
C 282 186 1018 -70 1510 -70 
C 2349 -70 2694 742 2694 1293 
C 2694 1843 2400 2336 1530 2336 
C 1363 2336 1114 2285 922 2195 
z
M 864 1965 
C 1075 2106 1286 2112 1395 2112 
C 2022 2112 2163 1498 2163 1178 
C 2163 474 1894 154 1581 154 
C 1178 154 813 371 813 1466 
C 813 1613 826 1779 864 1965 
z
" transform="scale(0.015625)"/>
       </defs>
       <use xlink:href="#LibertinusSerif-Regular-31"/>
       <use xlink:href="#LibertinusSerif-Regular-36" x="46.499985"/>
      </g>
     </g>
    </g>
    <g id="xtick_5">
     <g id="line2d_5">
      <path d="M 230.923636 307.584 
L 230.923636 41.472 
" clip-path="url(#pf088ad1134)" style="fill: none; stroke-dasharray: 1.85,0.8; stroke-dashoffset: 0; stroke: #b2b2b2; stroke-width: 0.5"/>
     </g>
     <g id="text_5">
      <!-- 32 -->
      <g style="fill: #262626" transform="translate(225.808636 318.761656) scale(0.11 -0.11)">
       <defs>
        <path id="LibertinusSerif-Regular-33" d="M 1376 3680 
C 1651 3680 1907 3514 1907 3104 
C 1907 2784 1536 2291 902 2202 
L 934 1997 
C 1043 2010 1158 2010 1242 2010 
C 1606 2010 2080 1907 2080 1184 
C 2080 333 1510 160 1286 160 
C 960 160 902 307 826 422 
C 762 512 678 589 550 589 
C 416 589 282 467 282 365 
C 282 109 819 -64 1203 -64 
C 1965 -64 2643 429 2643 1274 
C 2643 1971 2118 2221 1741 2285 
L 1734 2298 
C 2259 2547 2406 2810 2406 3149 
C 2406 3341 2362 3494 2208 3654 
C 2067 3795 1843 3904 1510 3904 
C 570 3904 301 3290 301 3078 
C 301 2989 365 2861 518 2861 
C 742 2861 768 3072 768 3194 
C 768 3603 1210 3680 1376 3680 
z
" transform="scale(0.015625)"/>
       </defs>
       <use xlink:href="#LibertinusSerif-Regular-33"/>
       <use xlink:href="#LibertinusSerif-Regular-32" x="46.499985"/>
      </g>
     </g>
    </g>
    <g id="xtick_6">
     <g id="line2d_6">
      <path d="M 398.487273 307.584 
L 398.487273 41.472 
" clip-path="url(#pf088ad1134)" style="fill: none; stroke-dasharray: 1.85,0.8; stroke-dashoffset: 0; stroke: #b2b2b2; stroke-width: 0.5"/>
     </g>
     <g id="text_6">
      <!-- 64 -->
      <g style="fill: #262626" transform="translate(393.372273 318.761656) scale(0.11 -0.11)">
       <use xlink:href="#LibertinusSerif-Regular-36"/>
       <use xlink:href="#LibertinusSerif-Regular-34" x="46.499985"/>
      </g>
     </g>
    </g>
    <g id="text_7">
     <!-- L1 Data Size (KB) -->
     <g style="fill: #262626" transform="translate(184.8825 335.387094) scale(0.144 -0.144)">
      <defs>
       <path id="LibertinusSerif-Regular-4c" d="M 954 0 
L 2317 0 
C 2490 0 3078 -13 3078 -13 
C 3142 307 3206 723 3245 1056 
C 3181 1088 3110 1101 3034 1088 
C 2906 627 2669 250 1990 250 
L 1587 250 
C 1338 250 1222 371 1222 698 
L 1222 3347 
C 1222 3878 1331 3910 1779 3930 
C 1818 3968 1818 4102 1779 4141 
C 1491 4134 1190 4128 947 4128 
C 717 4128 416 4134 122 4141 
C 83 4102 83 3968 122 3930 
C 570 3910 678 3878 678 3347 
L 678 781 
C 678 250 570 218 122 198 
C 83 160 83 26 122 -13 
C 371 -6 736 0 954 0 
z
" transform="scale(0.015625)"/>
       <path id="LibertinusSerif-Regular-20" transform="scale(0.015625)"/>
       <path id="LibertinusSerif-Regular-44" d="M 947 4128 
C 717 4128 378 4134 122 4141 
C 83 4102 83 3968 122 3930 
C 570 3910 678 3878 678 3347 
L 678 781 
C 678 250 570 218 122 198 
C 83 160 83 26 122 -13 
C 371 -6 710 0 954 0 
C 1190 0 1459 -13 2118 -13 
C 3021 -13 4211 397 4211 1971 
C 4211 3162 3232 4141 2003 4141 
C 1549 4141 1197 4128 947 4128 
z
M 1222 538 
L 1222 3610 
C 1222 3834 1446 3923 1760 3923 
C 3142 3923 3597 2803 3597 1818 
C 3597 525 2822 205 1920 205 
C 1293 205 1222 333 1222 538 
z
" transform="scale(0.015625)"/>
       <path id="LibertinusSerif-Regular-61" d="M 1875 307 
C 1914 109 1984 -64 2304 -64 
C 2547 -64 2778 45 2912 173 
C 2899 250 2874 307 2803 346 
C 2758 307 2650 243 2566 243 
C 2381 243 2374 493 2374 787 
L 2374 1728 
C 2374 2637 1875 2810 1408 2810 
C 883 2810 352 2464 352 2099 
C 352 1946 429 1869 576 1869 
C 762 1869 877 2003 877 2086 
C 877 2131 870 2176 858 2202 
C 851 2221 845 2259 845 2330 
C 845 2528 1114 2598 1357 2598 
C 1574 2598 1875 2490 1875 1766 
C 1875 1722 1856 1696 1837 1690 
L 1286 1555 
C 672 1402 230 1062 230 627 
C 230 102 589 -64 1037 -64 
C 1261 -64 1453 -13 1734 205 
L 1862 307 
L 1875 307 
z
M 1875 1491 
L 1875 646 
C 1875 563 1837 518 1786 480 
C 1619 346 1402 198 1222 198 
C 902 198 762 454 762 653 
C 762 941 896 1235 1370 1357 
L 1875 1491 
z
" transform="scale(0.015625)"/>
       <path id="LibertinusSerif-Regular-74" d="M 275 2746 
C 186 2746 160 2669 160 2618 
L 160 2534 
C 160 2502 166 2496 192 2496 
L 570 2496 
L 570 570 
C 570 115 768 -64 1062 -64 
C 1357 -64 1677 77 1926 358 
C 1914 422 1875 461 1811 467 
C 1645 339 1453 288 1286 288 
C 1114 288 1075 480 1075 877 
L 1075 2496 
L 1741 2496 
C 1805 2496 1894 2522 1894 2579 
L 1894 2707 
C 1894 2733 1875 2746 1843 2746 
L 1075 2746 
L 1075 2995 
C 1075 3411 1101 3667 1101 3667 
C 1101 3706 1082 3725 1050 3725 
C 1024 3725 966 3699 909 3667 
C 838 3629 774 3597 691 3578 
C 614 3552 550 3533 550 3488 
C 550 3411 570 3456 570 2746 
L 275 2746 
z
" transform="scale(0.015625)"/>
       <path id="LibertinusSerif-Regular-53" d="M 2528 4038 
C 2157 4090 2170 4211 1542 4211 
C 896 4211 326 3782 326 3104 
C 326 2432 883 2125 1446 1907 
C 1830 1760 2304 1581 2304 954 
C 2304 435 2016 166 1504 166 
C 909 166 525 442 384 1075 
C 301 1101 237 1088 173 1056 
C 198 563 224 397 301 83 
C 704 83 883 -64 1453 -64 
C 1741 -64 2016 6 2240 147 
C 2611 378 2842 768 2842 1178 
C 2842 1856 2330 2157 1805 2355 
C 1421 2496 781 2739 781 3277 
C 781 3635 1107 3994 1485 3994 
C 2106 3994 2304 3597 2432 3174 
C 2502 3162 2586 3168 2643 3213 
C 2618 3520 2592 3699 2528 4038 
z
" transform="scale(0.015625)"/>
       <path id="LibertinusSerif-Regular-69" d="M 1158 781 
L 1158 2054 
C 1158 2374 1184 2784 1184 2784 
C 1184 2810 1152 2829 1101 2829 
C 922 2758 666 2701 224 2643 
C 211 2605 224 2502 237 2464 
C 589 2432 653 2394 653 2029 
L 653 781 
C 653 250 582 230 192 198 
C 154 160 154 26 192 -13 
C 403 -6 653 0 909 0 
C 1165 0 1408 -6 1619 -13 
C 1658 26 1658 160 1619 198 
C 1229 224 1158 250 1158 781 
z
M 576 3834 
C 576 3667 730 3501 883 3501 
C 1062 3501 1216 3674 1216 3808 
C 1216 3962 1082 4141 909 4141 
C 755 4141 576 3987 576 3834 
z
" transform="scale(0.015625)"/>
       <path id="LibertinusSerif-Regular-7a" d="M 454 2810 
C 442 2810 416 2784 416 2771 
C 410 2483 378 2259 320 1946 
C 378 1920 454 1907 531 1926 
C 659 2394 858 2502 1050 2509 
L 1869 2528 
C 1434 1798 794 877 294 205 
C 237 128 237 109 237 77 
C 237 32 288 0 384 0 
L 2381 -19 
C 2458 198 2541 531 2586 851 
C 2547 877 2470 890 2394 890 
L 2304 704 
C 2144 365 2010 224 1677 218 
L 826 218 
C 1299 819 1965 1824 2362 2477 
C 2458 2637 2477 2688 2477 2714 
C 2477 2739 2445 2758 2400 2758 
C 2368 2758 2189 2746 2003 2746 
L 832 2746 
C 627 2746 550 2778 454 2810 
z
" transform="scale(0.015625)"/>
       <path id="LibertinusSerif-Regular-65" d="M 2470 595 
C 2234 352 2048 250 1677 250 
C 1446 250 1178 384 979 710 
C 851 922 774 1216 774 1587 
L 2477 1574 
C 2554 1574 2598 1613 2598 1683 
C 2598 2221 2406 2797 1517 2797 
C 960 2797 237 2266 237 1293 
C 237 934 326 589 538 346 
C 755 90 1056 -64 1517 -64 
C 2003 -64 2349 160 2605 493 
C 2586 557 2547 589 2470 595 
z
M 794 1805 
C 915 2528 1363 2586 1517 2586 
C 1760 2586 2048 2451 2048 1914 
C 2048 1856 2022 1824 1952 1824 
L 794 1805 
z
" transform="scale(0.015625)"/>
       <path id="LibertinusSerif-Regular-28" d="M 282 1613 
C 282 1325 307 -154 1638 -1306 
C 1702 -1293 1754 -1248 1773 -1197 
C 1562 -954 813 -70 813 1613 
C 813 3296 1568 4179 1773 4410 
C 1754 4474 1709 4518 1638 4525 
C 877 3872 282 2803 282 1613 
z
" transform="scale(0.015625)"/>
       <path id="LibertinusSerif-Regular-4b" d="M 1222 781 
L 1222 1978 
C 1440 1971 1626 1901 1754 1734 
L 2758 467 
C 2886 301 2976 128 2989 26 
C 2989 6 2995 -13 3021 -13 
C 3149 -6 3232 0 3366 0 
C 3584 0 3802 -6 4013 -13 
C 4051 26 4051 160 4013 198 
C 3827 218 3648 237 3450 467 
L 2048 2131 
C 1997 2189 1965 2240 1965 2291 
C 1965 2336 1971 2381 2189 2605 
L 3130 3571 
C 3424 3885 3680 3910 3936 3930 
C 3974 3968 3974 4102 3936 4141 
C 3738 4134 3533 4128 3328 4128 
C 3091 4128 2842 4134 2605 4141 
C 2566 4102 2566 3968 2605 3930 
C 2835 3910 3053 3885 2784 3597 
L 1728 2470 
C 1594 2323 1446 2240 1222 2221 
L 1222 3347 
C 1222 3878 1331 3910 1779 3930 
C 1818 3968 1818 4102 1779 4141 
C 1485 4134 1184 4128 947 4128 
C 704 4128 410 4134 122 4141 
C 83 4102 83 3968 122 3930 
C 570 3910 678 3878 678 3347 
L 678 781 
C 678 250 570 218 122 198 
C 83 160 83 26 122 -13 
C 410 -6 704 0 954 0 
C 1197 0 1491 -6 1779 -13 
C 1818 26 1818 160 1779 198 
C 1331 218 1222 250 1222 781 
z
" transform="scale(0.015625)"/>
       <path id="LibertinusSerif-Regular-42" d="M 947 4128 
C 717 4128 371 4134 122 4141 
C 83 4102 83 3968 122 3930 
C 570 3910 678 3878 678 3347 
L 678 781 
C 678 250 570 218 122 198 
C 83 160 83 26 122 -13 
C 371 -6 717 0 954 0 
C 1184 0 1350 -13 1888 -13 
C 3162 -13 3501 627 3501 1178 
C 3501 1792 3072 2144 2515 2304 
L 2515 2317 
C 2835 2477 3123 2810 3123 3155 
C 3123 3584 2938 4141 1747 4141 
C 1523 4141 1178 4128 947 4128 
z
M 1222 2125 
L 1664 2125 
C 2541 2125 2906 1632 2906 1056 
C 2906 589 2726 198 1754 198 
C 1306 198 1222 365 1222 755 
L 1222 2125 
z
M 1222 3520 
C 1222 3859 1222 3923 1779 3923 
C 2138 3923 2605 3731 2605 3078 
C 2605 2534 2227 2342 1696 2342 
L 1222 2342 
L 1222 3520 
z
" transform="scale(0.015625)"/>
       <path id="LibertinusSerif-Regular-29" d="M 1626 1613 
C 1626 1901 1600 3379 269 4531 
C 205 4518 154 4474 134 4422 
C 346 4179 1094 3296 1094 1613 
C 1094 -70 339 -954 134 -1184 
C 154 -1248 198 -1293 269 -1299 
C 1030 -646 1626 422 1626 1613 
z
" transform="scale(0.015625)"/>
      </defs>
      <use xlink:href="#LibertinusSerif-Regular-4c"/>
      <use xlink:href="#LibertinusSerif-Regular-31" x="52.799988"/>
      <use xlink:href="#LibertinusSerif-Regular-20" x="99.299973"/>
      <use xlink:href="#LibertinusSerif-Regular-44" x="124.299957"/>
      <use xlink:href="#LibertinusSerif-Regular-61" x="194.399948"/>
      <use xlink:href="#LibertinusSerif-Regular-74" x="240.099945"/>
      <use xlink:href="#LibertinusSerif-Regular-61" x="271.699936"/>
      <use xlink:href="#LibertinusSerif-Regular-20" x="317.399933"/>
      <use xlink:href="#LibertinusSerif-Regular-53" x="342.399918"/>
      <use xlink:href="#LibertinusSerif-Regular-69" x="390.899902"/>
      <use xlink:href="#LibertinusSerif-Regular-7a" x="417.999893"/>
      <use xlink:href="#LibertinusSerif-Regular-65" x="460.399887"/>
      <use xlink:href="#LibertinusSerif-Regular-20" x="505.099884"/>
      <use xlink:href="#LibertinusSerif-Regular-28" x="530.099869"/>
      <use xlink:href="#LibertinusSerif-Regular-4b" x="559.899857"/>
      <use xlink:href="#LibertinusSerif-Regular-42" x="623.599854"/>
      <use xlink:href="#LibertinusSerif-Regular-29" x="682.399841"/>
     </g>
    </g>
   </g>
   <g id="matplotlib.axis_2">
    <g id="ytick_1">
     <g id="line2d_7">
      <path d="M 57.6 299.58871 
L 414.72 299.58871 
" clip-path="url(#pf088ad1134)" style="fill: none; stroke-dasharray: 1.85,0.8; stroke-dashoffset: 0; stroke: #b2b2b2; stroke-width: 0.5"/>
     </g>
     <g id="text_8">
      <!-- 4.25 -->
      <g style="fill: #262626" transform="translate(36.335 303.427538) scale(0.11 -0.11)">
       <defs>
        <path id="LibertinusSerif-Regular-2e" d="M 365 275 
C 365 90 518 -64 704 -64 
C 890 -64 1043 90 1043 275 
C 1043 461 890 614 704 614 
C 518 614 365 461 365 275 
z
" transform="scale(0.015625)"/>
        <path id="LibertinusSerif-Regular-35" d="M 2042 1210 
C 2042 602 1722 154 1338 154 
C 1094 154 1011 314 915 442 
C 832 550 723 646 589 646 
C 467 646 346 538 346 410 
C 346 147 890 -70 1254 -70 
C 2048 -70 2611 518 2611 1325 
C 2611 1946 2182 2502 1466 2502 
C 1190 2502 954 2445 838 2400 
L 966 3469 
C 1203 3443 1408 3411 1715 3411 
C 1907 3411 2125 3424 2387 3450 
L 2490 3885 
L 2445 3910 
C 2080 3872 1734 3840 1395 3840 
C 1158 3840 928 3853 704 3872 
L 486 2029 
C 826 2157 1069 2182 1299 2182 
C 1715 2182 2042 1907 2042 1210 
z
" transform="scale(0.015625)"/>
       </defs>
       <use xlink:href="#LibertinusSerif-Regular-34"/>
       <use xlink:href="#LibertinusSerif-Regular-2e" x="46.499985"/>
       <use xlink:href="#LibertinusSerif-Regular-32" x="68.499969"/>
       <use xlink:href="#LibertinusSerif-Regular-35" x="114.999954"/>
      </g>
     </g>
    </g>
    <g id="ytick_2">
     <g id="line2d_8">
      <path d="M 57.6 264.508008 
L 414.72 264.508008 
" clip-path="url(#pf088ad1134)" style="fill: none; stroke-dasharray: 1.85,0.8; stroke-dashoffset: 0; stroke: #b2b2b2; stroke-width: 0.5"/>
     </g>
     <g id="text_9">
      <!-- 4.50 -->
      <g style="fill: #262626" transform="translate(36.335 268.346836) scale(0.11 -0.11)">
       <defs>
        <path id="LibertinusSerif-Regular-30" d="M 1459 -64 
C 1952 -64 2701 435 2701 1939 
C 2701 2573 2547 3117 2266 3488 
C 2099 3712 1830 3904 1485 3904 
C 851 3904 250 3149 250 1882 
C 250 1197 461 557 813 205 
C 992 26 1210 -64 1459 -64 
z
M 1485 3680 
C 1594 3680 1696 3642 1773 3571 
C 1971 3405 2144 2918 2144 2061 
C 2144 1472 2125 1069 2035 742 
C 1894 218 1581 160 1466 160 
C 870 160 806 1254 806 1811 
C 806 3386 1197 3680 1485 3680 
z
" transform="scale(0.015625)"/>
       </defs>
       <use xlink:href="#LibertinusSerif-Regular-34"/>
       <use xlink:href="#LibertinusSerif-Regular-2e" x="46.499985"/>
       <use xlink:href="#LibertinusSerif-Regular-35" x="68.499969"/>
       <use xlink:href="#LibertinusSerif-Regular-30" x="114.999954"/>
      </g>
     </g>
    </g>
    <g id="ytick_3">
     <g id="line2d_9">
      <path d="M 57.6 229.427306 
L 414.72 229.427306 
" clip-path="url(#pf088ad1134)" style="fill: none; stroke-dasharray: 1.85,0.8; stroke-dashoffset: 0; stroke: #b2b2b2; stroke-width: 0.5"/>
     </g>
     <g id="text_10">
      <!-- 4.75 -->
      <g style="fill: #262626" transform="translate(36.335 233.266134) scale(0.11 -0.11)">
       <defs>
        <path id="LibertinusSerif-Regular-37" d="M 1088 3424 
L 2234 3424 
C 1734 2182 1229 934 794 -38 
L 845 -83 
L 1280 -64 
C 1645 1024 1997 2086 2714 3834 
L 2611 3910 
C 2502 3878 2362 3840 2118 3840 
L 800 3840 
C 582 3840 595 3904 480 3930 
C 461 3930 454 3930 454 3910 
C 448 3603 378 3219 326 2886 
C 397 2867 461 2861 531 2867 
C 672 3379 883 3424 1088 3424 
z
" transform="scale(0.015625)"/>
       </defs>
       <use xlink:href="#LibertinusSerif-Regular-34"/>
       <use xlink:href="#LibertinusSerif-Regular-2e" x="46.499985"/>
       <use xlink:href="#LibertinusSerif-Regular-37" x="68.499969"/>
       <use xlink:href="#LibertinusSerif-Regular-35" x="114.999954"/>
      </g>
     </g>
    </g>
    <g id="ytick_4">
     <g id="line2d_10">
      <path d="M 57.6 194.346604 
L 414.72 194.346604 
" clip-path="url(#pf088ad1134)" style="fill: none; stroke-dasharray: 1.85,0.8; stroke-dashoffset: 0; stroke: #b2b2b2; stroke-width: 0.5"/>
     </g>
     <g id="text_11">
      <!-- 5.00 -->
      <g style="fill: #262626" transform="translate(36.335 198.185432) scale(0.11 -0.11)">
       <use xlink:href="#LibertinusSerif-Regular-35"/>
       <use xlink:href="#LibertinusSerif-Regular-2e" x="46.499985"/>
       <use xlink:href="#LibertinusSerif-Regular-30" x="68.499969"/>
       <use xlink:href="#LibertinusSerif-Regular-30" x="114.999954"/>
      </g>
     </g>
    </g>
    <g id="ytick_5">
     <g id="line2d_11">
      <path d="M 57.6 159.265902 
L 414.72 159.265902 
" clip-path="url(#pf088ad1134)" style="fill: none; stroke-dasharray: 1.85,0.8; stroke-dashoffset: 0; stroke: #b2b2b2; stroke-width: 0.5"/>
     </g>
     <g id="text_12">
      <!-- 5.25 -->
      <g style="fill: #262626" transform="translate(36.335 163.10473) scale(0.11 -0.11)">
       <use xlink:href="#LibertinusSerif-Regular-35"/>
       <use xlink:href="#LibertinusSerif-Regular-2e" x="46.499985"/>
       <use xlink:href="#LibertinusSerif-Regular-32" x="68.499969"/>
       <use xlink:href="#LibertinusSerif-Regular-35" x="114.999954"/>
      </g>
     </g>
    </g>
    <g id="ytick_6">
     <g id="line2d_12">
      <path d="M 57.6 124.1852 
L 414.72 124.1852 
" clip-path="url(#pf088ad1134)" style="fill: none; stroke-dasharray: 1.85,0.8; stroke-dashoffset: 0; stroke: #b2b2b2; stroke-width: 0.5"/>
     </g>
     <g id="text_13">
      <!-- 5.50 -->
      <g style="fill: #262626" transform="translate(36.335 128.024028) scale(0.11 -0.11)">
       <use xlink:href="#LibertinusSerif-Regular-35"/>
       <use xlink:href="#LibertinusSerif-Regular-2e" x="46.499985"/>
       <use xlink:href="#LibertinusSerif-Regular-35" x="68.499969"/>
       <use xlink:href="#LibertinusSerif-Regular-30" x="114.999954"/>
      </g>
     </g>
    </g>
    <g id="ytick_7">
     <g id="line2d_13">
      <path d="M 57.6 89.104498 
L 414.72 89.104498 
" clip-path="url(#pf088ad1134)" style="fill: none; stroke-dasharray: 1.85,0.8; stroke-dashoffset: 0; stroke: #b2b2b2; stroke-width: 0.5"/>
     </g>
     <g id="text_14">
      <!-- 5.75 -->
      <g style="fill: #262626" transform="translate(36.335 92.943327) scale(0.11 -0.11)">
       <use xlink:href="#LibertinusSerif-Regular-35"/>
       <use xlink:href="#LibertinusSerif-Regular-2e" x="46.499985"/>
       <use xlink:href="#LibertinusSerif-Regular-37" x="68.499969"/>
       <use xlink:href="#LibertinusSerif-Regular-35" x="114.999954"/>
      </g>
     </g>
    </g>
    <g id="ytick_8">
     <g id="line2d_14">
      <path d="M 57.6 54.023797 
L 414.72 54.023797 
" clip-path="url(#pf088ad1134)" style="fill: none; stroke-dasharray: 1.85,0.8; stroke-dashoffset: 0; stroke: #b2b2b2; stroke-width: 0.5"/>
     </g>
     <g id="text_15">
      <!-- 6.00 -->
      <g style="fill: #262626" transform="translate(36.335 57.862625) scale(0.11 -0.11)">
       <use xlink:href="#LibertinusSerif-Regular-36"/>
       <use xlink:href="#LibertinusSerif-Regular-2e" x="46.499985"/>
       <use xlink:href="#LibertinusSerif-Regular-30" x="68.499969"/>
       <use xlink:href="#LibertinusSerif-Regular-30" x="114.999954"/>
      </g>
     </g>
    </g>
    <g id="text_16">
     <!-- CPU Cycles -->
     <g style="fill: #262626" transform="translate(28.9645 209.00025) rotate(-90) scale(0.144 -0.144)">
      <defs>
       <path id="LibertinusSerif-Regular-43" d="M 2285 -64 
C 2906 -64 3475 230 3910 800 
C 3878 858 3834 896 3763 896 
C 3309 397 2874 198 2278 198 
C 1414 198 819 1171 819 2106 
C 819 2656 966 3117 1197 3405 
C 1517 3795 1888 3974 2221 3974 
C 3104 3974 3456 3450 3622 2899 
C 3699 2874 3763 2893 3834 2931 
C 3802 3264 3757 3571 3693 3923 
C 3366 3955 3078 4211 2291 4211 
C 1747 4211 1293 4013 915 3667 
C 493 3277 237 2650 237 1984 
C 237 870 909 -64 2285 -64 
z
" transform="scale(0.015625)"/>
       <path id="LibertinusSerif-Regular-50" d="M 666 3347 
L 666 781 
C 666 250 557 218 109 198 
C 70 160 70 26 109 -13 
C 397 -6 710 0 941 0 
C 1165 0 1542 -6 1862 -13 
C 1901 26 1901 160 1862 198 
C 1363 224 1210 250 1210 781 
L 1210 1869 
C 1350 1824 1504 1805 1728 1805 
C 2893 1805 3245 2566 3245 3110 
C 3245 3488 2995 4173 1811 4173 
C 1568 4173 1190 4128 934 4128 
C 698 4128 365 4134 109 4141 
C 70 4102 70 3968 109 3930 
C 557 3910 666 3878 666 3347 
z
M 1210 3546 
C 1210 3731 1306 3955 1766 3955 
C 2208 3955 2650 3808 2650 2995 
C 2650 2304 2317 2022 1696 2022 
C 1536 2022 1280 2035 1210 2054 
L 1210 3546 
z
" transform="scale(0.015625)"/>
       <path id="LibertinusSerif-Regular-55" d="M 1101 3347 
C 1101 3878 1197 3910 1690 3930 
C 1728 3968 1728 4102 1690 4141 
C 1389 4134 1075 4128 826 4128 
C 576 4128 314 4134 64 4141 
C 26 4102 26 3968 64 3930 
C 448 3910 557 3878 557 3347 
L 557 1491 
C 557 186 1402 -64 2054 -64 
C 3366 -64 3680 749 3680 1888 
L 3680 3347 
C 3680 3859 3789 3885 4173 3930 
C 4211 3968 4211 4102 4173 4141 
C 3930 4134 3667 4128 3520 4128 
C 3386 4128 3072 4134 2778 4141 
C 2739 4102 2739 3968 2778 3930 
C 3258 3885 3366 3866 3366 3347 
L 3366 1773 
C 3366 1056 3270 198 2189 198 
C 1882 198 1619 314 1427 499 
C 1114 800 1101 1286 1101 1702 
L 1101 3347 
z
" transform="scale(0.015625)"/>
       <path id="LibertinusSerif-Regular-79" d="M 1306 -1024 
C 1408 -845 1491 -666 1568 -474 
C 2080 762 2368 1421 2701 2138 
C 2829 2406 2918 2509 3219 2547 
C 3258 2586 3258 2720 3219 2758 
C 3091 2752 2944 2746 2765 2746 
C 2573 2746 2374 2752 2182 2758 
C 2144 2720 2144 2586 2182 2547 
C 2387 2528 2592 2490 2490 2259 
L 1856 794 
C 1811 691 1754 672 1702 800 
L 1133 2131 
C 1018 2400 986 2522 1344 2547 
C 1382 2586 1382 2720 1344 2758 
C 1107 2752 851 2746 621 2746 
C 403 2746 230 2752 102 2758 
C 64 2720 64 2586 102 2547 
C 358 2515 442 2458 608 2067 
L 1331 384 
C 1389 256 1485 -38 1421 -218 
C 1344 -429 1267 -608 1171 -806 
C 1101 -934 1011 -992 851 -992 
C 762 -992 736 -973 666 -973 
C 480 -973 384 -1165 384 -1248 
C 384 -1382 512 -1485 685 -1485 
C 819 -1485 1075 -1434 1306 -1024 
z
" transform="scale(0.015625)"/>
       <path id="LibertinusSerif-Regular-63" d="M 2547 582 
C 2522 640 2470 666 2413 672 
C 2195 390 1920 250 1645 250 
C 1178 250 787 723 787 1472 
C 787 2176 1094 2598 1517 2598 
C 1894 2598 1946 2374 1971 2150 
C 1990 1978 2080 1920 2214 1920 
C 2349 1920 2528 2003 2528 2202 
C 2528 2554 2163 2810 1549 2810 
C 915 2810 237 2240 237 1331 
C 237 506 698 -64 1504 -64 
C 1888 -64 2227 58 2547 582 
z
" transform="scale(0.015625)"/>
       <path id="LibertinusSerif-Regular-6c" d="M 608 781 
C 608 250 538 218 147 198 
C 109 160 109 26 147 -13 
C 371 -6 608 0 864 0 
C 1120 0 1363 -6 1574 -13 
C 1613 26 1613 160 1574 198 
C 1184 218 1114 250 1114 781 
L 1114 3731 
C 1114 4147 1139 4403 1139 4403 
C 1139 4448 1114 4467 1056 4467 
C 896 4403 416 4314 160 4294 
C 147 4243 160 4141 198 4102 
C 570 4077 608 4058 608 3578 
L 608 781 
z
" transform="scale(0.015625)"/>
       <path id="LibertinusSerif-Regular-73" d="M 307 883 
C 333 570 352 269 352 0 
C 416 13 480 19 512 19 
C 557 19 595 19 640 6 
C 813 -38 986 -64 1222 -64 
C 1581 -64 2240 109 2240 742 
C 2240 1178 1926 1434 1491 1594 
C 1107 1741 851 1837 851 2189 
C 851 2451 1082 2598 1299 2598 
C 1440 2598 1811 2547 1894 2003 
C 1933 1965 2061 1971 2099 2010 
C 2118 2240 2131 2477 2138 2688 
C 1939 2720 1632 2810 1299 2810 
C 826 2810 397 2502 397 2093 
C 397 1626 608 1427 1101 1222 
C 1632 1005 1754 870 1754 595 
C 1754 282 1446 147 1210 147 
C 960 147 819 230 755 301 
C 614 448 544 730 506 890 
C 467 928 346 922 307 883 
z
" transform="scale(0.015625)"/>
      </defs>
      <use xlink:href="#LibertinusSerif-Regular-43"/>
      <use xlink:href="#LibertinusSerif-Regular-50" x="64.599991"/>
      <use xlink:href="#LibertinusSerif-Regular-55" x="118.699982"/>
      <use xlink:href="#LibertinusSerif-Regular-20" x="184.799973"/>
      <use xlink:href="#LibertinusSerif-Regular-43" x="209.799957"/>
      <use xlink:href="#LibertinusSerif-Regular-79" x="274.399948"/>
      <use xlink:href="#LibertinusSerif-Regular-63" x="325.899933"/>
      <use xlink:href="#LibertinusSerif-Regular-6c" x="368.699921"/>
      <use xlink:href="#LibertinusSerif-Regular-65" x="395.099915"/>
      <use xlink:href="#LibertinusSerif-Regular-73" x="439.799911"/>
     </g>
    </g>
    <g id="text_17">
     <!-- 1e7 -->
     <g style="fill: #262626" transform="translate(57.6 38.472) scale(0.11 -0.11)">
      <use xlink:href="#LibertinusSerif-Regular-31"/>
      <use xlink:href="#LibertinusSerif-Regular-65" x="46.499985"/>
      <use xlink:href="#LibertinusSerif-Regular-37" x="91.199982"/>
     </g>
    </g>
   </g>
   <g id="PolyCollection_1"/>
   <g id="line2d_15">
    <path d="M 73.832727 53.568 
L 84.305455 55.071222 
L 105.250909 56.342827 
L 147.141818 292.555955 
L 230.923636 295.488 
L 398.487273 293.733684 
" clip-path="url(#pf088ad1134)" style="fill: none; stroke: #348abd; stroke-width: 2; stroke-linecap: round"/>
    <defs>
     <path id="m0704d10400" d="M 0 3 
C 0.795609 3 1.55874 2.683901 2.12132 2.12132 
C 2.683901 1.55874 3 0.795609 3 0 
C 3 -0.795609 2.683901 -1.55874 2.12132 -2.12132 
C 1.55874 -2.683901 0.795609 -3 0 -3 
C -0.795609 -3 -1.55874 -2.683901 -2.12132 -2.12132 
C -2.683901 -1.55874 -3 -0.795609 -3 0 
C -3 0.795609 -2.683901 1.55874 -2.12132 2.12132 
C -1.55874 2.683901 -0.795609 3 0 3 
z
" style="stroke: #ffffff; stroke-width: 0.75"/>
    </defs>
    <g clip-path="url(#pf088ad1134)">
     <use xlink:href="#m0704d10400" x="73.832727" y="53.568" style="fill: #348abd; stroke: #ffffff; stroke-width: 0.75"/>
     <use xlink:href="#m0704d10400" x="84.305455" y="55.071222" style="fill: #348abd; stroke: #ffffff; stroke-width: 0.75"/>
     <use xlink:href="#m0704d10400" x="105.250909" y="56.342827" style="fill: #348abd; stroke: #ffffff; stroke-width: 0.75"/>
     <use xlink:href="#m0704d10400" x="147.141818" y="292.555955" style="fill: #348abd; stroke: #ffffff; stroke-width: 0.75"/>
     <use xlink:href="#m0704d10400" x="230.923636" y="295.488" style="fill: #348abd; stroke: #ffffff; stroke-width: 0.75"/>
     <use xlink:href="#m0704d10400" x="398.487273" y="293.733684" style="fill: #348abd; stroke: #ffffff; stroke-width: 0.75"/>
    </g>
   </g>
   <g id="patch_3">
    <path d="M 57.6 307.584 
L 57.6 41.472 
" style="fill: none; stroke: #bcbcbc; stroke-width: 1.25; stroke-linejoin: miter; stroke-linecap: square"/>
   </g>
   <g id="patch_4">
    <path d="M 414.72 307.584 
L 414.72 41.472 
" style="fill: none; stroke: #bcbcbc; stroke-width: 1.25; stroke-linejoin: miter; stroke-linecap: square"/>
   </g>
   <g id="patch_5">
    <path d="M 57.6 307.584 
L 414.72 307.584 
" style="fill: none; stroke: #bcbcbc; stroke-width: 1.25; stroke-linejoin: miter; stroke-linecap: square"/>
   </g>
   <g id="patch_6">
    <path d="M 57.6 41.472 
L 414.72 41.472 
" style="fill: none; stroke: #bcbcbc; stroke-width: 1.25; stroke-linejoin: miter; stroke-linecap: square"/>
   </g>
   <g id="text_18">
    <!-- CPU Cycles vs L1 Data Size -->
    <g style="fill: #262626" transform="translate(139.16925 35.472) scale(0.1728 -0.1728)">
     <defs>
      <path id="LibertinusSerif-Regular-76" d="M 2080 2547 
C 2426 2522 2464 2445 2330 2118 
L 1811 864 
C 1709 614 1677 614 1574 883 
L 1114 2118 
C 998 2426 973 2502 1312 2547 
C 1350 2586 1350 2720 1312 2758 
C 1101 2752 877 2746 666 2746 
C 454 2746 262 2752 70 2758 
C 32 2720 32 2586 70 2547 
C 410 2509 454 2406 582 2080 
L 1402 58 
C 1440 -38 1478 -77 1562 -77 
C 1626 -77 1670 -38 1715 70 
L 2566 2074 
C 2688 2355 2758 2515 3117 2547 
C 3155 2586 3155 2720 3117 2758 
C 2989 2752 2835 2746 2669 2746 
C 2458 2746 2240 2752 2080 2758 
C 2042 2720 2042 2586 2080 2547 
z
" transform="scale(0.015625)"/>
     </defs>
     <use xlink:href="#LibertinusSerif-Regular-43"/>
     <use xlink:href="#LibertinusSerif-Regular-50" x="64.599991"/>
     <use xlink:href="#LibertinusSerif-Regular-55" x="118.699982"/>
     <use xlink:href="#LibertinusSerif-Regular-20" x="184.799973"/>
     <use xlink:href="#LibertinusSerif-Regular-43" x="209.799957"/>
     <use xlink:href="#LibertinusSerif-Regular-79" x="274.399948"/>
     <use xlink:href="#LibertinusSerif-Regular-63" x="325.899933"/>
     <use xlink:href="#LibertinusSerif-Regular-6c" x="368.699921"/>
     <use xlink:href="#LibertinusSerif-Regular-65" x="395.099915"/>
     <use xlink:href="#LibertinusSerif-Regular-73" x="439.799911"/>
     <use xlink:href="#LibertinusSerif-Regular-20" x="478.799896"/>
     <use xlink:href="#LibertinusSerif-Regular-76" x="503.799881"/>
     <use xlink:href="#LibertinusSerif-Regular-73" x="553.499878"/>
     <use xlink:href="#LibertinusSerif-Regular-20" x="592.499863"/>
     <use xlink:href="#LibertinusSerif-Regular-4c" x="617.499847"/>
     <use xlink:href="#LibertinusSerif-Regular-31" x="670.299835"/>
     <use xlink:href="#LibertinusSerif-Regular-20" x="716.79982"/>
     <use xlink:href="#LibertinusSerif-Regular-44" x="741.799805"/>
     <use xlink:href="#LibertinusSerif-Regular-61" x="811.899796"/>
     <use xlink:href="#LibertinusSerif-Regular-74" x="857.599792"/>
     <use xlink:href="#LibertinusSerif-Regular-61" x="889.199783"/>
     <use xlink:href="#LibertinusSerif-Regular-20" x="934.89978"/>
     <use xlink:href="#LibertinusSerif-Regular-53" x="959.899765"/>
     <use xlink:href="#LibertinusSerif-Regular-69" x="1008.39975"/>
     <use xlink:href="#LibertinusSerif-Regular-7a" x="1035.499741"/>
     <use xlink:href="#LibertinusSerif-Regular-65" x="1077.899734"/>
    </g>
   </g>
  </g>
 </g>
 <defs>
  <clipPath id="pf088ad1134">
   <rect x="57.6" y="41.472" width="357.12" height="266.112"/>
  </clipPath>
 </defs>
</svg>
