<?xml version="1.0" encoding="utf-8" standalone="no"?>
<!DOCTYPE svg PUBLIC "-//W3C//DTD SVG 1.1//EN"
  "http://www.w3.org/Graphics/SVG/1.1/DTD/svg11.dtd">
<svg xmlns:xlink="http://www.w3.org/1999/xlink" width="460.8pt" height="345.6pt" viewBox="0 0 460.8 345.6" xmlns="http://www.w3.org/2000/svg" version="1.1">
 <metadata>
  <rdf:RDF xmlns:dc="http://purl.org/dc/elements/1.1/" xmlns:cc="http://creativecommons.org/ns#" xmlns:rdf="http://www.w3.org/1999/02/22-rdf-syntax-ns#">
   <cc:Work>
    <dc:type rdf:resource="http://purl.org/dc/dcmitype/StillImage"/>
    <dc:date>2024-11-19T08:49:13.237485</dc:date>
    <dc:format>image/svg+xml</dc:format>
    <dc:creator>
     <cc:Agent>
      <dc:title>Matplotlib v3.7.1, https://matplotlib.org/</dc:title>
     </cc:Agent>
    </dc:creator>
   </cc:Work>
  </rdf:RDF>
 </metadata>
 <defs>
  <style type="text/css">*{stroke-linejoin: round; stroke-linecap: butt}</style>
 </defs>
 <g id="figure_1">
  <g id="patch_1">
   <path d="M 0 345.6 
L 460.8 345.6 
L 460.8 0 
L 0 0 
z
" style="fill: #ffffff"/>
  </g>
  <g id="axes_1">
   <g id="patch_2">
    <path d="M 57.6 307.584 
L 414.72 307.584 
L 414.72 41.472 
L 57.6 41.472 
z
" style="fill: #eeeeee"/>
   </g>
   <g id="matplotlib.axis_1">
    <g id="xtick_1">
     <g id="text_1">
      <!-- Architecture 1 -->
      <g style="fill: #262626" transform="translate(114.563203 318.761656) scale(0.11 -0.11)">
       <defs>
        <path id="LibertinusSerif-Regular-41" d="M 992 506 
L 1344 1434 
C 1376 1517 1414 1542 1568 1542 
L 2918 1542 
L 3290 461 
C 3366 243 3123 218 2816 198 
C 2778 160 2778 26 2816 -13 
C 3053 -6 3405 0 3654 0 
C 3917 0 4160 -6 4384 -13 
C 4422 26 4422 160 4384 198 
C 4134 224 3917 243 3808 550 
L 2490 4211 
C 2394 4154 2221 4083 2138 4083 
L 685 653 
C 518 256 326 218 45 198 
C 6 160 6 26 45 -13 
C 211 -6 422 0 614 0 
C 877 0 1197 -6 1434 -13 
C 1472 26 1472 160 1434 198 
C 1190 218 890 243 992 506 
z
M 1683 1811 
C 1542 1811 1498 1830 1523 1894 
L 2176 3552 
L 2214 3552 
L 2816 1811 
L 1683 1811 
z
" transform="scale(0.015625)"/>
        <path id="LibertinusSerif-Regular-72" d="M 1126 2291 
C 1114 2547 1107 2714 1075 2778 
C 1062 2810 1050 2829 998 2829 
C 819 2758 653 2701 211 2643 
C 198 2605 211 2502 224 2464 
C 570 2432 640 2400 640 2029 
L 640 781 
C 640 250 563 224 166 198 
C 128 160 128 26 166 -13 
C 390 -6 640 0 896 0 
C 1152 0 1446 -6 1670 -13 
C 1709 26 1709 160 1670 198 
C 1222 230 1146 250 1146 781 
L 1146 1670 
C 1146 1837 1222 1984 1299 2099 
C 1370 2202 1517 2413 1594 2413 
C 1651 2413 1709 2400 1760 2330 
C 1805 2266 1882 2182 1990 2182 
C 2144 2182 2291 2342 2291 2502 
C 2291 2624 2176 2810 1907 2810 
C 1606 2810 1344 2528 1197 2278 
C 1158 2208 1126 2259 1126 2291 
z
" transform="scale(0.015625)"/>
        <path id="LibertinusSerif-Regular-63" d="M 2547 582 
C 2522 640 2470 666 2413 672 
C 2195 390 1920 250 1645 250 
C 1178 250 787 723 787 1472 
C 787 2176 1094 2598 1517 2598 
C 1894 2598 1946 2374 1971 2150 
C 1990 1978 2080 1920 2214 1920 
C 2349 1920 2528 2003 2528 2202 
C 2528 2554 2163 2810 1549 2810 
C 915 2810 237 2240 237 1331 
C 237 506 698 -64 1504 -64 
C 1888 -64 2227 58 2547 582 
z
" transform="scale(0.015625)"/>
        <path id="LibertinusSerif-Regular-68" d="M 1069 1830 
C 1069 1965 1126 2042 1178 2099 
C 1421 2336 1747 2477 1997 2477 
C 2125 2477 2259 2394 2336 2246 
C 2400 2118 2413 1946 2413 1754 
L 2413 781 
C 2413 256 2349 230 2016 198 
C 1984 160 1984 26 2016 -13 
C 2195 -6 2413 0 2669 0 
C 2925 0 3136 -6 3347 -13 
C 3379 26 3379 160 3347 198 
C 2989 230 2918 256 2918 781 
L 2918 1734 
C 2918 2086 2893 2400 2746 2592 
C 2637 2733 2438 2810 2214 2810 
C 1901 2810 1517 2726 1126 2291 
C 1126 2285 1120 2285 1114 2278 
C 1094 2253 1062 2214 1062 2291 
L 1069 3731 
C 1069 4147 1094 4403 1094 4403 
C 1094 4448 1069 4467 1011 4467 
C 851 4403 371 4314 115 4294 
C 102 4243 115 4141 154 4102 
C 173 4102 192 4102 211 4102 
C 493 4083 563 4083 563 3578 
L 563 781 
C 563 250 486 224 115 198 
C 77 160 77 26 115 -13 
C 326 -6 563 0 819 0 
C 1062 0 1274 -6 1453 -13 
C 1491 26 1491 160 1453 198 
C 1126 224 1069 250 1069 781 
L 1069 1830 
z
" transform="scale(0.015625)"/>
        <path id="LibertinusSerif-Regular-69" d="M 1158 781 
L 1158 2054 
C 1158 2374 1184 2784 1184 2784 
C 1184 2810 1152 2829 1101 2829 
C 922 2758 666 2701 224 2643 
C 211 2605 224 2502 237 2464 
C 589 2432 653 2394 653 2029 
L 653 781 
C 653 250 582 230 192 198 
C 154 160 154 26 192 -13 
C 403 -6 653 0 909 0 
C 1165 0 1408 -6 1619 -13 
C 1658 26 1658 160 1619 198 
C 1229 224 1158 250 1158 781 
z
M 576 3834 
C 576 3667 730 3501 883 3501 
C 1062 3501 1216 3674 1216 3808 
C 1216 3962 1082 4141 909 4141 
C 755 4141 576 3987 576 3834 
z
" transform="scale(0.015625)"/>
        <path id="LibertinusSerif-Regular-74" d="M 275 2746 
C 186 2746 160 2669 160 2618 
L 160 2534 
C 160 2502 166 2496 192 2496 
L 570 2496 
L 570 570 
C 570 115 768 -64 1062 -64 
C 1357 -64 1677 77 1926 358 
C 1914 422 1875 461 1811 467 
C 1645 339 1453 288 1286 288 
C 1114 288 1075 480 1075 877 
L 1075 2496 
L 1741 2496 
C 1805 2496 1894 2522 1894 2579 
L 1894 2707 
C 1894 2733 1875 2746 1843 2746 
L 1075 2746 
L 1075 2995 
C 1075 3411 1101 3667 1101 3667 
C 1101 3706 1082 3725 1050 3725 
C 1024 3725 966 3699 909 3667 
C 838 3629 774 3597 691 3578 
C 614 3552 550 3533 550 3488 
C 550 3411 570 3456 570 2746 
L 275 2746 
z
" transform="scale(0.015625)"/>
        <path id="LibertinusSerif-Regular-65" d="M 2470 595 
C 2234 352 2048 250 1677 250 
C 1446 250 1178 384 979 710 
C 851 922 774 1216 774 1587 
L 2477 1574 
C 2554 1574 2598 1613 2598 1683 
C 2598 2221 2406 2797 1517 2797 
C 960 2797 237 2266 237 1293 
C 237 934 326 589 538 346 
C 755 90 1056 -64 1517 -64 
C 2003 -64 2349 160 2605 493 
C 2586 557 2547 589 2470 595 
z
M 794 1805 
C 915 2528 1363 2586 1517 2586 
C 1760 2586 2048 2451 2048 1914 
C 2048 1856 2022 1824 1952 1824 
L 794 1805 
z
" transform="scale(0.015625)"/>
        <path id="LibertinusSerif-Regular-75" d="M 1389 -64 
C 1638 -64 1939 64 2253 320 
C 2285 346 2342 358 2349 314 
C 2368 154 2419 -64 2419 -64 
C 2470 -83 2502 -77 2541 -64 
C 2682 51 2906 147 3296 192 
C 3334 230 3334 326 3296 365 
C 2886 397 2829 518 2829 832 
L 2829 2061 
C 2829 2253 2854 2720 2854 2720 
C 2854 2739 2835 2758 2803 2758 
C 2771 2752 2675 2746 2579 2746 
C 2374 2746 2144 2752 1926 2758 
C 1888 2720 1888 2586 1926 2547 
C 2240 2528 2323 2451 2323 2029 
L 2323 794 
C 2323 672 2310 621 2221 544 
C 1984 339 1741 237 1581 237 
C 1389 237 1069 326 1069 896 
L 1069 2061 
C 1069 2253 1094 2720 1094 2720 
C 1094 2739 1075 2758 1043 2758 
C 1011 2752 915 2746 819 2746 
C 614 2746 384 2752 166 2758 
C 128 2720 128 2586 166 2547 
C 474 2522 563 2451 563 2035 
L 563 806 
C 563 365 755 -64 1389 -64 
z
" transform="scale(0.015625)"/>
        <path id="LibertinusSerif-Regular-20" transform="scale(0.015625)"/>
        <path id="LibertinusSerif-Regular-31" d="M 1843 781 
L 1843 3002 
C 1843 3386 1850 3776 1862 3859 
C 1862 3891 1850 3891 1824 3891 
C 1472 3674 1133 3514 570 3251 
C 582 3181 608 3117 666 3078 
C 960 3200 1101 3238 1222 3238 
C 1331 3238 1350 3085 1350 2867 
L 1350 781 
C 1350 250 1178 218 730 198 
C 691 160 691 26 730 -13 
C 1043 -6 1274 0 1619 0 
C 1926 0 2080 -6 2400 -13 
C 2438 26 2438 160 2400 198 
C 1952 218 1843 250 1843 781 
z
" transform="scale(0.015625)"/>
       </defs>
       <use xlink:href="#LibertinusSerif-Regular-41"/>
       <use xlink:href="#LibertinusSerif-Regular-72" x="69.499985"/>
       <use xlink:href="#LibertinusSerif-Regular-63" x="106.699982"/>
       <use xlink:href="#LibertinusSerif-Regular-68" x="149.499969"/>
       <use xlink:href="#LibertinusSerif-Regular-69" x="203.299957"/>
       <use xlink:href="#LibertinusSerif-Regular-74" x="230.399948"/>
       <use xlink:href="#LibertinusSerif-Regular-65" x="261.999939"/>
       <use xlink:href="#LibertinusSerif-Regular-63" x="306.699936"/>
       <use xlink:href="#LibertinusSerif-Regular-74" x="349.499924"/>
       <use xlink:href="#LibertinusSerif-Regular-75" x="381.099915"/>
       <use xlink:href="#LibertinusSerif-Regular-72" x="434.199905"/>
       <use xlink:href="#LibertinusSerif-Regular-65" x="471.399902"/>
       <use xlink:href="#LibertinusSerif-Regular-20" x="516.099899"/>
       <use xlink:href="#LibertinusSerif-Regular-31" x="541.099884"/>
      </g>
     </g>
    </g>
    <g id="xtick_2">
     <g id="text_2">
      <!-- Architecture 2 -->
      <g style="fill: #262626" transform="translate(293.123203 318.761656) scale(0.11 -0.11)">
       <defs>
        <path id="LibertinusSerif-Regular-32" d="M 390 2995 
C 390 2861 512 2746 646 2746 
C 755 2746 947 2861 947 3002 
C 947 3053 934 3091 922 3136 
C 909 3181 870 3238 870 3290 
C 870 3450 1037 3680 1504 3680 
C 1734 3680 2061 3520 2061 2906 
C 2061 2496 1914 2163 1536 1779 
L 1062 1312 
C 435 672 333 365 333 -13 
C 333 -13 659 0 864 0 
L 1984 0 
C 2189 0 2483 -13 2483 -13 
C 2566 326 2630 806 2637 998 
C 2598 1030 2515 1043 2451 1030 
C 2342 576 2234 416 2003 416 
L 864 416 
C 864 723 1306 1158 1338 1190 
L 1984 1811 
C 2349 2163 2624 2445 2624 2931 
C 2624 3622 2061 3904 1542 3904 
C 832 3904 390 3379 390 2995 
z
" transform="scale(0.015625)"/>
       </defs>
       <use xlink:href="#LibertinusSerif-Regular-41"/>
       <use xlink:href="#LibertinusSerif-Regular-72" x="69.499985"/>
       <use xlink:href="#LibertinusSerif-Regular-63" x="106.699982"/>
       <use xlink:href="#LibertinusSerif-Regular-68" x="149.499969"/>
       <use xlink:href="#LibertinusSerif-Regular-69" x="203.299957"/>
       <use xlink:href="#LibertinusSerif-Regular-74" x="230.399948"/>
       <use xlink:href="#LibertinusSerif-Regular-65" x="261.999939"/>
       <use xlink:href="#LibertinusSerif-Regular-63" x="306.699936"/>
       <use xlink:href="#LibertinusSerif-Regular-74" x="349.499924"/>
       <use xlink:href="#LibertinusSerif-Regular-75" x="381.099915"/>
       <use xlink:href="#LibertinusSerif-Regular-72" x="434.199905"/>
       <use xlink:href="#LibertinusSerif-Regular-65" x="471.399902"/>
       <use xlink:href="#LibertinusSerif-Regular-20" x="516.099899"/>
       <use xlink:href="#LibertinusSerif-Regular-32" x="541.099884"/>
      </g>
     </g>
    </g>
    <g id="text_3">
     <!-- Architecture -->
     <g style="fill: #262626" transform="translate(199.002375 335.387094) scale(0.144 -0.144)">
      <use xlink:href="#LibertinusSerif-Regular-41"/>
      <use xlink:href="#LibertinusSerif-Regular-72" x="69.499985"/>
      <use xlink:href="#LibertinusSerif-Regular-63" x="106.699982"/>
      <use xlink:href="#LibertinusSerif-Regular-68" x="149.499969"/>
      <use xlink:href="#LibertinusSerif-Regular-69" x="203.299957"/>
      <use xlink:href="#LibertinusSerif-Regular-74" x="230.399948"/>
      <use xlink:href="#LibertinusSerif-Regular-65" x="261.999939"/>
      <use xlink:href="#LibertinusSerif-Regular-63" x="306.699936"/>
      <use xlink:href="#LibertinusSerif-Regular-74" x="349.499924"/>
      <use xlink:href="#LibertinusSerif-Regular-75" x="381.099915"/>
      <use xlink:href="#LibertinusSerif-Regular-72" x="434.199905"/>
      <use xlink:href="#LibertinusSerif-Regular-65" x="471.399902"/>
     </g>
    </g>
   </g>
   <g id="matplotlib.axis_2">
    <g id="ytick_1">
     <g id="line2d_1">
      <path d="M 57.6 307.584 
L 414.72 307.584 
" clip-path="url(#p9438124e29)" style="fill: none; stroke-dasharray: 1.85,0.8; stroke-dashoffset: 0; stroke: #b2b2b2; stroke-width: 0.5"/>
     </g>
     <g id="text_4">
      <!-- 0 -->
      <g style="fill: #262626" transform="translate(48.985 311.422828) scale(0.11 -0.11)">
       <defs>
        <path id="LibertinusSerif-Regular-30" d="M 1459 -64 
C 1952 -64 2701 435 2701 1939 
C 2701 2573 2547 3117 2266 3488 
C 2099 3712 1830 3904 1485 3904 
C 851 3904 250 3149 250 1882 
C 250 1197 461 557 813 205 
C 992 26 1210 -64 1459 -64 
z
M 1485 3680 
C 1594 3680 1696 3642 1773 3571 
C 1971 3405 2144 2918 2144 2061 
C 2144 1472 2125 1069 2035 742 
C 1894 218 1581 160 1466 160 
C 870 160 806 1254 806 1811 
C 806 3386 1197 3680 1485 3680 
z
" transform="scale(0.015625)"/>
       </defs>
       <use xlink:href="#LibertinusSerif-Regular-30"/>
      </g>
     </g>
    </g>
    <g id="ytick_2">
     <g id="line2d_2">
      <path d="M 57.6 248.568703 
L 414.72 248.568703 
" clip-path="url(#p9438124e29)" style="fill: none; stroke-dasharray: 1.85,0.8; stroke-dashoffset: 0; stroke: #b2b2b2; stroke-width: 0.5"/>
     </g>
     <g id="text_5">
      <!-- 2 -->
      <g style="fill: #262626" transform="translate(48.985 252.407531) scale(0.11 -0.11)">
       <use xlink:href="#LibertinusSerif-Regular-32"/>
      </g>
     </g>
    </g>
    <g id="ytick_3">
     <g id="line2d_3">
      <path d="M 57.6 189.553406 
L 414.72 189.553406 
" clip-path="url(#p9438124e29)" style="fill: none; stroke-dasharray: 1.85,0.8; stroke-dashoffset: 0; stroke: #b2b2b2; stroke-width: 0.5"/>
     </g>
     <g id="text_6">
      <!-- 4 -->
      <g style="fill: #262626" transform="translate(48.985 193.392234) scale(0.11 -0.11)">
       <defs>
        <path id="LibertinusSerif-Regular-34" d="M 2752 1402 
L 2221 1402 
L 2221 3270 
C 2221 3590 2221 3840 2234 3891 
L 2221 3904 
L 2016 3904 
C 1971 3904 1939 3866 1914 3834 
C 1510 3341 768 2285 179 1370 
C 198 1274 237 1101 429 1101 
L 1734 1101 
L 1734 512 
C 1734 218 1491 218 1216 198 
C 1178 160 1178 26 1216 -13 
C 1421 -6 1677 0 1971 0 
C 2221 0 2464 -6 2669 -13 
C 2707 26 2707 160 2669 198 
C 2355 224 2221 211 2221 512 
L 2221 1101 
L 2662 1101 
C 2752 1101 2848 1222 2848 1299 
C 2848 1363 2822 1402 2752 1402 
z
M 1734 3245 
L 1734 1402 
L 512 1402 
C 838 1926 1293 2643 1734 3245 
z
" transform="scale(0.015625)"/>
       </defs>
       <use xlink:href="#LibertinusSerif-Regular-34"/>
      </g>
     </g>
    </g>
    <g id="ytick_4">
     <g id="line2d_4">
      <path d="M 57.6 130.538109 
L 414.72 130.538109 
" clip-path="url(#p9438124e29)" style="fill: none; stroke-dasharray: 1.85,0.8; stroke-dashoffset: 0; stroke: #b2b2b2; stroke-width: 0.5"/>
     </g>
     <g id="text_7">
      <!-- 6 -->
      <g style="fill: #262626" transform="translate(48.985 134.376937) scale(0.11 -0.11)">
       <defs>
        <path id="LibertinusSerif-Regular-36" d="M 922 2195 
C 1094 2778 1504 3424 2355 3744 
C 2355 3821 2330 3878 2278 3910 
C 1632 3718 1235 3450 877 3034 
C 480 2573 282 1990 282 1485 
C 282 186 1018 -70 1510 -70 
C 2349 -70 2694 742 2694 1293 
C 2694 1843 2400 2336 1530 2336 
C 1363 2336 1114 2285 922 2195 
z
M 864 1965 
C 1075 2106 1286 2112 1395 2112 
C 2022 2112 2163 1498 2163 1178 
C 2163 474 1894 154 1581 154 
C 1178 154 813 371 813 1466 
C 813 1613 826 1779 864 1965 
z
" transform="scale(0.015625)"/>
       </defs>
       <use xlink:href="#LibertinusSerif-Regular-36"/>
      </g>
     </g>
    </g>
    <g id="ytick_5">
     <g id="line2d_5">
      <path d="M 57.6 71.522812 
L 414.72 71.522812 
" clip-path="url(#p9438124e29)" style="fill: none; stroke-dasharray: 1.85,0.8; stroke-dashoffset: 0; stroke: #b2b2b2; stroke-width: 0.5"/>
     </g>
     <g id="text_8">
      <!-- 8 -->
      <g style="fill: #262626" transform="translate(48.985 75.36164) scale(0.11 -0.11)">
       <defs>
        <path id="LibertinusSerif-Regular-38" d="M 2515 3104 
C 2515 3565 2157 3904 1530 3904 
C 877 3904 454 3514 454 3021 
C 454 2662 627 2400 1018 2157 
L 1184 2054 
C 998 1958 826 1843 666 1702 
C 403 1472 294 1184 294 934 
C 294 282 755 -64 1434 -64 
C 2272 -64 2682 550 2682 1037 
C 2682 1408 2522 1734 2182 1939 
L 1728 2214 
C 2029 2362 2515 2694 2515 3104 
z
M 1446 160 
C 1158 160 723 358 723 934 
C 723 1126 806 1574 1357 1939 
L 1658 1760 
C 2054 1517 2214 1216 2214 909 
C 2214 269 1734 160 1446 160 
z
M 1498 3680 
C 1914 3680 2067 3405 2067 3110 
C 2067 2765 1728 2477 1555 2349 
L 1357 2470 
C 954 2733 909 2944 909 3142 
C 909 3437 1114 3680 1498 3680 
z
" transform="scale(0.015625)"/>
       </defs>
       <use xlink:href="#LibertinusSerif-Regular-38"/>
      </g>
     </g>
    </g>
    <g id="text_9">
     <!-- # of CPU Cycles -->
     <g style="fill: #262626" transform="translate(41.6145 221.8095) rotate(-90) scale(0.144 -0.144)">
      <defs>
       <path id="LibertinusSerif-Regular-23" d="M 2144 2304 
L 2752 2304 
L 2803 2643 
L 2189 2643 
L 2374 3789 
L 2131 3789 
L 1952 2643 
L 1222 2643 
L 1414 3789 
L 1171 3789 
L 986 2643 
L 390 2643 
L 339 2304 
L 934 2304 
L 819 1568 
L 218 1568 
L 166 1229 
L 762 1229 
L 582 90 
L 819 90 
L 1005 1229 
L 1722 1229 
L 1549 90 
L 1792 90 
L 1984 1229 
L 2586 1229 
L 2630 1568 
L 2022 1568 
L 2144 2304 
z
M 1786 1568 
L 1056 1568 
L 1178 2304 
L 1901 2304 
L 1786 1568 
z
" transform="scale(0.015625)"/>
       <path id="LibertinusSerif-Regular-6f" d="M 262 1312 
C 262 659 698 -64 1606 -64 
C 2016 -64 2330 83 2547 294 
C 2835 576 2963 979 2963 1370 
C 2963 2035 2598 2810 1619 2810 
C 1197 2810 851 2637 614 2362 
C 384 2086 262 1715 262 1312 
z
M 1523 2586 
C 2074 2586 2413 2086 2413 1165 
C 2413 358 1997 160 1696 160 
C 1030 160 813 966 813 1459 
C 813 2016 947 2586 1523 2586 
z
" transform="scale(0.015625)"/>
       <path id="LibertinusSerif-Regular-66" d="M 1120 781 
L 1120 2496 
L 1715 2496 
C 1773 2496 1862 2522 1862 2579 
L 1862 2707 
C 1862 2733 1843 2746 1811 2746 
L 1120 2746 
L 1120 3110 
C 1120 4096 1414 4250 1626 4250 
C 1818 4250 1920 4173 2010 3949 
C 2061 3834 2131 3744 2266 3744 
C 2374 3744 2528 3878 2528 4006 
C 2528 4115 2458 4230 2323 4333 
C 2157 4448 1990 4467 1747 4467 
C 1210 4467 614 4000 614 3002 
L 614 2746 
L 288 2746 
C 173 2746 141 2669 141 2618 
L 141 2534 
C 141 2502 147 2496 173 2496 
L 614 2496 
L 614 781 
C 614 250 512 224 166 198 
C 128 160 128 26 166 -13 
C 390 -6 614 0 870 0 
C 1126 0 1434 -6 1658 -13 
C 1696 26 1696 160 1658 198 
C 1158 224 1120 250 1120 781 
z
" transform="scale(0.015625)"/>
       <path id="LibertinusSerif-Regular-43" d="M 2285 -64 
C 2906 -64 3475 230 3910 800 
C 3878 858 3834 896 3763 896 
C 3309 397 2874 198 2278 198 
C 1414 198 819 1171 819 2106 
C 819 2656 966 3117 1197 3405 
C 1517 3795 1888 3974 2221 3974 
C 3104 3974 3456 3450 3622 2899 
C 3699 2874 3763 2893 3834 2931 
C 3802 3264 3757 3571 3693 3923 
C 3366 3955 3078 4211 2291 4211 
C 1747 4211 1293 4013 915 3667 
C 493 3277 237 2650 237 1984 
C 237 870 909 -64 2285 -64 
z
" transform="scale(0.015625)"/>
       <path id="LibertinusSerif-Regular-50" d="M 666 3347 
L 666 781 
C 666 250 557 218 109 198 
C 70 160 70 26 109 -13 
C 397 -6 710 0 941 0 
C 1165 0 1542 -6 1862 -13 
C 1901 26 1901 160 1862 198 
C 1363 224 1210 250 1210 781 
L 1210 1869 
C 1350 1824 1504 1805 1728 1805 
C 2893 1805 3245 2566 3245 3110 
C 3245 3488 2995 4173 1811 4173 
C 1568 4173 1190 4128 934 4128 
C 698 4128 365 4134 109 4141 
C 70 4102 70 3968 109 3930 
C 557 3910 666 3878 666 3347 
z
M 1210 3546 
C 1210 3731 1306 3955 1766 3955 
C 2208 3955 2650 3808 2650 2995 
C 2650 2304 2317 2022 1696 2022 
C 1536 2022 1280 2035 1210 2054 
L 1210 3546 
z
" transform="scale(0.015625)"/>
       <path id="LibertinusSerif-Regular-55" d="M 1101 3347 
C 1101 3878 1197 3910 1690 3930 
C 1728 3968 1728 4102 1690 4141 
C 1389 4134 1075 4128 826 4128 
C 576 4128 314 4134 64 4141 
C 26 4102 26 3968 64 3930 
C 448 3910 557 3878 557 3347 
L 557 1491 
C 557 186 1402 -64 2054 -64 
C 3366 -64 3680 749 3680 1888 
L 3680 3347 
C 3680 3859 3789 3885 4173 3930 
C 4211 3968 4211 4102 4173 4141 
C 3930 4134 3667 4128 3520 4128 
C 3386 4128 3072 4134 2778 4141 
C 2739 4102 2739 3968 2778 3930 
C 3258 3885 3366 3866 3366 3347 
L 3366 1773 
C 3366 1056 3270 198 2189 198 
C 1882 198 1619 314 1427 499 
C 1114 800 1101 1286 1101 1702 
L 1101 3347 
z
" transform="scale(0.015625)"/>
       <path id="LibertinusSerif-Regular-79" d="M 1306 -1024 
C 1408 -845 1491 -666 1568 -474 
C 2080 762 2368 1421 2701 2138 
C 2829 2406 2918 2509 3219 2547 
C 3258 2586 3258 2720 3219 2758 
C 3091 2752 2944 2746 2765 2746 
C 2573 2746 2374 2752 2182 2758 
C 2144 2720 2144 2586 2182 2547 
C 2387 2528 2592 2490 2490 2259 
L 1856 794 
C 1811 691 1754 672 1702 800 
L 1133 2131 
C 1018 2400 986 2522 1344 2547 
C 1382 2586 1382 2720 1344 2758 
C 1107 2752 851 2746 621 2746 
C 403 2746 230 2752 102 2758 
C 64 2720 64 2586 102 2547 
C 358 2515 442 2458 608 2067 
L 1331 384 
C 1389 256 1485 -38 1421 -218 
C 1344 -429 1267 -608 1171 -806 
C 1101 -934 1011 -992 851 -992 
C 762 -992 736 -973 666 -973 
C 480 -973 384 -1165 384 -1248 
C 384 -1382 512 -1485 685 -1485 
C 819 -1485 1075 -1434 1306 -1024 
z
" transform="scale(0.015625)"/>
       <path id="LibertinusSerif-Regular-6c" d="M 608 781 
C 608 250 538 218 147 198 
C 109 160 109 26 147 -13 
C 371 -6 608 0 864 0 
C 1120 0 1363 -6 1574 -13 
C 1613 26 1613 160 1574 198 
C 1184 218 1114 250 1114 781 
L 1114 3731 
C 1114 4147 1139 4403 1139 4403 
C 1139 4448 1114 4467 1056 4467 
C 896 4403 416 4314 160 4294 
C 147 4243 160 4141 198 4102 
C 570 4077 608 4058 608 3578 
L 608 781 
z
" transform="scale(0.015625)"/>
       <path id="LibertinusSerif-Regular-73" d="M 307 883 
C 333 570 352 269 352 0 
C 416 13 480 19 512 19 
C 557 19 595 19 640 6 
C 813 -38 986 -64 1222 -64 
C 1581 -64 2240 109 2240 742 
C 2240 1178 1926 1434 1491 1594 
C 1107 1741 851 1837 851 2189 
C 851 2451 1082 2598 1299 2598 
C 1440 2598 1811 2547 1894 2003 
C 1933 1965 2061 1971 2099 2010 
C 2118 2240 2131 2477 2138 2688 
C 1939 2720 1632 2810 1299 2810 
C 826 2810 397 2502 397 2093 
C 397 1626 608 1427 1101 1222 
C 1632 1005 1754 870 1754 595 
C 1754 282 1446 147 1210 147 
C 960 147 819 230 755 301 
C 614 448 544 730 506 890 
C 467 928 346 922 307 883 
z
" transform="scale(0.015625)"/>
      </defs>
      <use xlink:href="#LibertinusSerif-Regular-23"/>
      <use xlink:href="#LibertinusSerif-Regular-20" x="46.499985"/>
      <use xlink:href="#LibertinusSerif-Regular-6f" x="71.499969"/>
      <use xlink:href="#LibertinusSerif-Regular-66" x="121.899963"/>
      <use xlink:href="#LibertinusSerif-Regular-20" x="152.899948"/>
      <use xlink:href="#LibertinusSerif-Regular-43" x="177.899933"/>
      <use xlink:href="#LibertinusSerif-Regular-50" x="242.499924"/>
      <use xlink:href="#LibertinusSerif-Regular-55" x="296.599915"/>
      <use xlink:href="#LibertinusSerif-Regular-20" x="362.699905"/>
      <use xlink:href="#LibertinusSerif-Regular-43" x="387.69989"/>
      <use xlink:href="#LibertinusSerif-Regular-79" x="452.299881"/>
      <use xlink:href="#LibertinusSerif-Regular-63" x="503.799866"/>
      <use xlink:href="#LibertinusSerif-Regular-6c" x="546.599854"/>
      <use xlink:href="#LibertinusSerif-Regular-65" x="572.999847"/>
      <use xlink:href="#LibertinusSerif-Regular-73" x="617.699844"/>
     </g>
    </g>
    <g id="text_10">
     <!-- 1e8 -->
     <g style="fill: #262626" transform="translate(57.6 38.472) scale(0.11 -0.11)">
      <use xlink:href="#LibertinusSerif-Regular-31"/>
      <use xlink:href="#LibertinusSerif-Regular-65" x="46.499985"/>
      <use xlink:href="#LibertinusSerif-Regular-38" x="91.199982"/>
     </g>
    </g>
   </g>
   <g id="patch_3">
    <path d="M 75.456 307.584 
L 218.304 307.584 
L 218.304 54.144 
L 75.456 54.144 
z
" clip-path="url(#p9438124e29)" style="fill: #4586ac; stroke: #eeeeee; stroke-width: 0.5; stroke-linejoin: miter"/>
   </g>
   <g id="patch_4">
    <path d="M 254.016 307.584 
L 396.864 307.584 
L 396.864 289.961078 
L 254.016 289.961078 
z
" clip-path="url(#p9438124e29)" style="fill: #921a33; stroke: #eeeeee; stroke-width: 0.5; stroke-linejoin: miter"/>
   </g>
   <g id="line2d_6">
    <path clip-path="url(#p9438124e29)" style="fill: none; stroke: #424242; stroke-width: 3; stroke-linecap: round"/>
   </g>
   <g id="line2d_7">
    <path clip-path="url(#p9438124e29)" style="fill: none; stroke: #424242; stroke-width: 3; stroke-linecap: round"/>
   </g>
   <g id="patch_5">
    <path d="M 57.6 307.584 
L 57.6 41.472 
" style="fill: none; stroke: #bcbcbc; stroke-width: 1.25; stroke-linejoin: miter; stroke-linecap: square"/>
   </g>
   <g id="patch_6">
    <path d="M 414.72 307.584 
L 414.72 41.472 
" style="fill: none; stroke: #bcbcbc; stroke-width: 1.25; stroke-linejoin: miter; stroke-linecap: square"/>
   </g>
   <g id="patch_7">
    <path d="M 57.6 307.584 
L 414.72 307.584 
" style="fill: none; stroke: #bcbcbc; stroke-width: 1.25; stroke-linejoin: miter; stroke-linecap: square"/>
   </g>
   <g id="patch_8">
    <path d="M 57.6 41.472 
L 414.72 41.472 
" style="fill: none; stroke: #bcbcbc; stroke-width: 1.25; stroke-linejoin: miter; stroke-linecap: square"/>
   </g>
   <g id="text_11">
    <!-- Amount of CPU Cycles for the two architectures -->
    <g style="fill: #262626" transform="translate(64.68435 24.794344) scale(0.1728 -0.1728)">
     <defs>
      <path id="LibertinusSerif-Regular-6d" d="M 1088 2291 
C 1082 2483 1069 2714 1037 2778 
C 1024 2810 1011 2829 960 2829 
C 781 2758 614 2701 173 2643 
C 160 2605 173 2502 186 2464 
C 531 2432 602 2400 602 2029 
L 602 781 
C 602 256 518 224 166 198 
C 128 160 128 26 166 -13 
C 358 -6 602 0 858 0 
C 1114 0 1312 -6 1504 -13 
C 1542 26 1542 160 1504 198 
C 1178 230 1107 256 1107 781 
L 1107 1830 
C 1107 1965 1165 2042 1216 2099 
C 1472 2349 1709 2477 1907 2477 
C 2150 2477 2330 2323 2330 1894 
L 2330 781 
C 2330 256 2278 224 1933 198 
C 1901 160 1901 26 1933 -13 
C 2093 -6 2330 0 2586 0 
C 2842 0 3053 -6 3213 -13 
C 3245 26 3245 160 3213 198 
C 2893 224 2835 256 2835 781 
L 2835 1798 
C 2835 1888 2835 1978 2829 2054 
C 3136 2394 3424 2477 3674 2477 
C 3917 2477 4058 2336 4058 1907 
L 4058 781 
C 4058 256 3994 224 3661 198 
C 3629 160 3629 26 3661 -13 
C 3821 -6 4058 0 4314 0 
C 4570 0 4794 -6 4973 -13 
C 5005 26 5005 160 4973 198 
C 4621 224 4563 256 4563 781 
L 4563 1792 
C 4563 2362 4467 2810 3904 2810 
C 3578 2810 3181 2688 2848 2336 
C 2829 2317 2790 2285 2778 2342 
C 2720 2605 2470 2810 2138 2810 
C 1766 2810 1434 2592 1165 2291 
C 1133 2259 1094 2214 1088 2291 
z
" transform="scale(0.015625)"/>
      <path id="LibertinusSerif-Regular-6e" d="M 1178 2291 
C 1139 2246 1101 2234 1101 2291 
C 1094 2464 1082 2714 1050 2778 
C 1037 2810 1024 2829 973 2829 
C 794 2758 627 2701 186 2643 
C 173 2605 186 2502 198 2464 
C 544 2432 614 2400 614 2029 
L 614 781 
C 614 256 550 230 166 198 
C 128 160 128 26 166 -13 
C 358 -6 614 0 870 0 
C 1126 0 1318 -6 1510 -13 
C 1549 26 1549 160 1510 198 
C 1184 230 1120 256 1120 781 
L 1120 1830 
C 1120 1965 1178 2042 1229 2099 
C 1472 2336 1760 2477 2010 2477 
C 2138 2477 2272 2394 2349 2246 
C 2413 2118 2426 1946 2426 1754 
L 2426 781 
C 2426 256 2362 230 2029 198 
C 1997 160 1997 26 2029 -13 
C 2221 -6 2426 0 2682 0 
C 2938 0 3168 -6 3360 -13 
C 3392 26 3392 160 3360 198 
C 3002 230 2931 256 2931 781 
L 2931 1734 
C 2931 2086 2906 2394 2758 2592 
C 2650 2733 2451 2810 2227 2810 
C 1914 2810 1555 2726 1178 2291 
z
" transform="scale(0.015625)"/>
      <path id="LibertinusSerif-Regular-77" d="M 1299 2547 
C 1338 2586 1338 2720 1299 2758 
C 1107 2752 883 2746 653 2746 
C 410 2746 237 2752 70 2758 
C 32 2720 32 2586 70 2547 
C 371 2515 442 2451 576 2118 
L 1414 51 
C 1453 -38 1504 -77 1568 -77 
C 1626 -77 1677 -38 1722 64 
L 2368 1638 
L 3027 51 
C 3066 -38 3117 -77 3181 -77 
C 3238 -77 3290 -38 3328 58 
L 4166 2086 
C 4269 2349 4378 2528 4704 2547 
C 4742 2586 4742 2720 4704 2758 
C 4576 2752 4435 2746 4243 2746 
C 4051 2746 3782 2752 3590 2758 
C 3552 2720 3552 2586 3590 2547 
C 4070 2522 4006 2336 3917 2112 
L 3379 781 
C 3315 621 3290 621 3238 755 
L 2688 2157 
C 2566 2458 2579 2522 2918 2547 
C 2957 2586 2957 2720 2918 2758 
C 2726 2752 2470 2746 2278 2746 
C 2118 2746 1907 2752 1715 2758 
C 1677 2720 1677 2586 1715 2547 
C 2016 2522 2093 2336 2208 2048 
L 2246 1946 
L 1798 813 
C 1715 602 1702 595 1619 800 
L 1107 2118 
C 986 2426 992 2528 1299 2547 
z
" transform="scale(0.015625)"/>
      <path id="LibertinusSerif-Regular-61" d="M 1875 307 
C 1914 109 1984 -64 2304 -64 
C 2547 -64 2778 45 2912 173 
C 2899 250 2874 307 2803 346 
C 2758 307 2650 243 2566 243 
C 2381 243 2374 493 2374 787 
L 2374 1728 
C 2374 2637 1875 2810 1408 2810 
C 883 2810 352 2464 352 2099 
C 352 1946 429 1869 576 1869 
C 762 1869 877 2003 877 2086 
C 877 2131 870 2176 858 2202 
C 851 2221 845 2259 845 2330 
C 845 2528 1114 2598 1357 2598 
C 1574 2598 1875 2490 1875 1766 
C 1875 1722 1856 1696 1837 1690 
L 1286 1555 
C 672 1402 230 1062 230 627 
C 230 102 589 -64 1037 -64 
C 1261 -64 1453 -13 1734 205 
L 1862 307 
L 1875 307 
z
M 1875 1491 
L 1875 646 
C 1875 563 1837 518 1786 480 
C 1619 346 1402 198 1222 198 
C 902 198 762 454 762 653 
C 762 941 896 1235 1370 1357 
L 1875 1491 
z
" transform="scale(0.015625)"/>
     </defs>
     <use xlink:href="#LibertinusSerif-Regular-41"/>
     <use xlink:href="#LibertinusSerif-Regular-6d" x="69.499985"/>
     <use xlink:href="#LibertinusSerif-Regular-6f" x="148.499969"/>
     <use xlink:href="#LibertinusSerif-Regular-75" x="198.899963"/>
     <use xlink:href="#LibertinusSerif-Regular-6e" x="251.999954"/>
     <use xlink:href="#LibertinusSerif-Regular-74" x="306.199951"/>
     <use xlink:href="#LibertinusSerif-Regular-20" x="337.799942"/>
     <use xlink:href="#LibertinusSerif-Regular-6f" x="362.799927"/>
     <use xlink:href="#LibertinusSerif-Regular-66" x="413.199921"/>
     <use xlink:href="#LibertinusSerif-Regular-20" x="444.199905"/>
     <use xlink:href="#LibertinusSerif-Regular-43" x="469.19989"/>
     <use xlink:href="#LibertinusSerif-Regular-50" x="533.799881"/>
     <use xlink:href="#LibertinusSerif-Regular-55" x="587.899872"/>
     <use xlink:href="#LibertinusSerif-Regular-20" x="653.999863"/>
     <use xlink:href="#LibertinusSerif-Regular-43" x="678.999847"/>
     <use xlink:href="#LibertinusSerif-Regular-79" x="743.599838"/>
     <use xlink:href="#LibertinusSerif-Regular-63" x="795.099823"/>
     <use xlink:href="#LibertinusSerif-Regular-6c" x="837.899811"/>
     <use xlink:href="#LibertinusSerif-Regular-65" x="864.299805"/>
     <use xlink:href="#LibertinusSerif-Regular-73" x="908.999802"/>
     <use xlink:href="#LibertinusSerif-Regular-20" x="947.999786"/>
     <use xlink:href="#LibertinusSerif-Regular-66" x="972.999771"/>
     <use xlink:href="#LibertinusSerif-Regular-6f" x="1003.999756"/>
     <use xlink:href="#LibertinusSerif-Regular-72" x="1054.39975"/>
     <use xlink:href="#LibertinusSerif-Regular-20" x="1091.599747"/>
     <use xlink:href="#LibertinusSerif-Regular-74" x="1116.599731"/>
     <use xlink:href="#LibertinusSerif-Regular-68" x="1148.199722"/>
     <use xlink:href="#LibertinusSerif-Regular-65" x="1201.99971"/>
     <use xlink:href="#LibertinusSerif-Regular-20" x="1246.699707"/>
     <use xlink:href="#LibertinusSerif-Regular-74" x="1271.699692"/>
     <use xlink:href="#LibertinusSerif-Regular-77" x="1303.299683"/>
     <use xlink:href="#LibertinusSerif-Regular-6f" x="1377.999664"/>
     <use xlink:href="#LibertinusSerif-Regular-20" x="1428.399658"/>
     <use xlink:href="#LibertinusSerif-Regular-61" x="1453.399643"/>
     <use xlink:href="#LibertinusSerif-Regular-72" x="1499.09964"/>
     <use xlink:href="#LibertinusSerif-Regular-63" x="1536.299637"/>
     <use xlink:href="#LibertinusSerif-Regular-68" x="1579.099625"/>
     <use xlink:href="#LibertinusSerif-Regular-69" x="1632.899612"/>
     <use xlink:href="#LibertinusSerif-Regular-74" x="1659.999603"/>
     <use xlink:href="#LibertinusSerif-Regular-65" x="1691.599594"/>
     <use xlink:href="#LibertinusSerif-Regular-63" x="1736.299591"/>
     <use xlink:href="#LibertinusSerif-Regular-74" x="1779.099579"/>
     <use xlink:href="#LibertinusSerif-Regular-75" x="1810.69957"/>
     <use xlink:href="#LibertinusSerif-Regular-72" x="1863.799561"/>
     <use xlink:href="#LibertinusSerif-Regular-65" x="1900.999557"/>
     <use xlink:href="#LibertinusSerif-Regular-73" x="1945.699554"/>
    </g>
   </g>
  </g>
 </g>
 <defs>
  <clipPath id="p9438124e29">
   <rect x="57.6" y="41.472" width="357.12" height="266.112"/>
  </clipPath>
 </defs>
</svg>
